<?xml version="1.0" encoding="UTF-8"?>
<svg width="350px" height="100px" viewBox="0 0 350 100" version="1.1" xmlns="http://www.w3.org/2000/svg" xmlns:xlink="http://www.w3.org/1999/xlink">
    <defs>
        <path d="M16.2108305,21.1569905 C106.163224,5.55241747 143.991866,18.9489816 129.696756,61.3466828 C108.25409,124.943235 12.7849592,-0.808544772 19.0010634,58.7653216 C23.1451329,98.4812325 51.2642504,93.3433589 103.358416,43.3517007" id="path-1"></path>
    </defs>
    <g stroke="none" stroke-width="1" fill="none" fill-rule="evenodd">
        <g>
            <use stroke="#000000" stroke-width="10" xlink:href="#path-1"></use>
            <use stroke="#027AFF" stroke-width="2" xlink:href="#path-1"></use>
        </g>
        <path d="M264.796653,56.8004319 C262.867158,55.5953689 256.401228,51.5163059 255.483846,50.9409525 C251.883261,48.6827789 249.168138,47.0197384 246.620077,45.5284342 C240.039706,41.6771397 235.029702,39.2635986 230.716994,38.0762504 C224.6805,36.4143197 219.604191,37.1547431 216.188438,41.248316 C213.031643,45.0315424 212.154572,50.9064573 213.028062,59.2778023 C215.369063,81.7134754 225.703295,92.789178 243.097166,89.6110019 C251.72157,88.0351664 262.052945,82.8353503 274.205354,74.0136751 C287.263742,81.1874989 297.712275,84.9190406 306.984606,84.8259271 C319.414249,84.7011076 328.540778,77.452553 333.434695,62.9377437 C341.419404,39.2559875 334.323896,22.433667 312.715723,14.7813891 C292.780797,7.7216719 260.114877,8.28612689 214.356215,16.2241524 L216.065446,26.0769961 C260.259177,18.4104485 291.483775,17.870899 309.377491,24.207746 C325.597959,29.9520321 330.269217,41.0268443 323.958816,59.7427893 C317.919522,77.6546622 305.610469,78.9968116 282.915944,67.3236721 C289.996538,61.6076827 297.625212,54.8173009 305.8204,46.9528693 L298.896432,39.7376995 C289.600243,48.6586966 281.104706,56.102021 273.441199,62.0682564 C270.83965,60.5360654 268.039309,58.8256274 264.796653,56.8004319 Z M241.299742,79.7738647 C230.574495,81.7335621 224.777134,75.5202461 222.974065,58.2400084 C222.355263,52.309534 222.872231,48.8467082 223.866551,47.6550763 C224.288766,47.1490767 225.40598,46.9861215 228.062616,47.7175302 C231.329586,48.6169725 235.684036,50.7147038 241.5689,54.158939 C244.011999,55.5888117 246.649197,57.2041226 250.170651,59.412668 C251.069511,59.9764047 257.546451,64.0624132 259.499419,65.282136 C261.353924,66.4403645 263.070727,67.5002117 264.69387,68.4862623 C255.372,74.8698976 247.549219,78.6319716 241.299742,79.7738647 Z" stroke="#027AFF" stroke-width="2" fill="#000000" fill-rule="nonzero"></path>
        <polygon fill="#000000" stroke="#FFFFFF" stroke-width="2" points="160 35 190 50 160 65"></polygon>
    </g>
</svg>
